# xArm6 end ring mesh, meters
# outer_diameter=0.275 inner_diameter=0.265 thickness=0.005
v 0.137500000 0.000000000 -0.002500000
v 0.137205602 0.008992930 -0.002500000
v 0.136323668 0.017947351 -0.002500000
v 0.134857976 0.026824919 -0.002500000
v 0.132814801 0.035587619 -0.002500000
v 0.130202893 0.044197926 -0.002500000
v 0.127033436 0.052618972 -0.002500000
v 0.123320002 0.060814695 -0.002500000
v 0.119078493 0.068750000 -0.002500000
v 0.114327072 0.076390907 -0.002500000
v 0.109086084 0.083704696 -0.002500000
v 0.103377974 0.090660050 -0.002500000
v 0.097227182 0.097227182 -0.002500000
v 0.090660050 0.103377974 -0.002500000
v 0.083704696 0.109086084 -0.002500000
v 0.076390907 0.114327072 -0.002500000
v 0.068750000 0.119078493 -0.002500000
v 0.060814695 0.123320002 -0.002500000
v 0.052618972 0.127033436 -0.002500000
v 0.044197926 0.130202893 -0.002500000
v 0.035587619 0.132814801 -0.002500000
v 0.026824919 0.134857976 -0.002500000
v 0.017947351 0.136323668 -0.002500000
v 0.008992930 0.137205602 -0.002500000
v 0.000000000 0.137500000 -0.002500000
v -0.008992930 0.137205602 -0.002500000
v -0.017947351 0.136323668 -0.002500000
v -0.026824919 0.134857976 -0.002500000
v -0.035587619 0.132814801 -0.002500000
v -0.044197926 0.130202893 -0.002500000
v -0.052618972 0.127033436 -0.002500000
v -0.060814695 0.123320002 -0.002500000
v -0.068750000 0.119078493 -0.002500000
v -0.076390907 0.114327072 -0.002500000
v -0.083704696 0.109086084 -0.002500000
v -0.090660050 0.103377974 -0.002500000
v -0.097227182 0.097227182 -0.002500000
v -0.103377974 0.090660050 -0.002500000
v -0.109086084 0.083704696 -0.002500000
v -0.114327072 0.076390907 -0.002500000
v -0.119078493 0.068750000 -0.002500000
v -0.123320002 0.060814695 -0.002500000
v -0.127033436 0.052618972 -0.002500000
v -0.130202893 0.044197926 -0.002500000
v -0.132814801 0.035587619 -0.002500000
v -0.134857976 0.026824919 -0.002500000
v -0.136323668 0.017947351 -0.002500000
v -0.137205602 0.008992930 -0.002500000
v -0.137500000 0.000000000 -0.002500000
v -0.137205602 -0.008992930 -0.002500000
v -0.136323668 -0.017947351 -0.002500000
v -0.134857976 -0.026824919 -0.002500000
v -0.132814801 -0.035587619 -0.002500000
v -0.130202893 -0.044197926 -0.002500000
v -0.127033436 -0.052618972 -0.002500000
v -0.123320002 -0.060814695 -0.002500000
v -0.119078493 -0.068750000 -0.002500000
v -0.114327072 -0.076390907 -0.002500000
v -0.109086084 -0.083704696 -0.002500000
v -0.103377974 -0.090660050 -0.002500000
v -0.097227182 -0.097227182 -0.002500000
v -0.090660050 -0.103377974 -0.002500000
v -0.083704696 -0.109086084 -0.002500000
v -0.076390907 -0.114327072 -0.002500000
v -0.068750000 -0.119078493 -0.002500000
v -0.060814695 -0.123320002 -0.002500000
v -0.052618972 -0.127033436 -0.002500000
v -0.044197926 -0.130202893 -0.002500000
v -0.035587619 -0.132814801 -0.002500000
v -0.026824919 -0.134857976 -0.002500000
v -0.017947351 -0.136323668 -0.002500000
v -0.008992930 -0.137205602 -0.002500000
v -0.000000000 -0.137500000 -0.002500000
v 0.008992930 -0.137205602 -0.002500000
v 0.017947351 -0.136323668 -0.002500000
v 0.026824919 -0.134857976 -0.002500000
v 0.035587619 -0.132814801 -0.002500000
v 0.044197926 -0.130202893 -0.002500000
v 0.052618972 -0.127033436 -0.002500000
v 0.060814695 -0.123320002 -0.002500000
v 0.068750000 -0.119078493 -0.002500000
v 0.076390907 -0.114327072 -0.002500000
v 0.083704696 -0.109086084 -0.002500000
v 0.090660050 -0.103377974 -0.002500000
v 0.097227182 -0.097227182 -0.002500000
v 0.103377974 -0.090660050 -0.002500000
v 0.109086084 -0.083704696 -0.002500000
v 0.114327072 -0.076390907 -0.002500000
v 0.119078493 -0.068750000 -0.002500000
v 0.123320002 -0.060814695 -0.002500000
v 0.127033436 -0.052618972 -0.002500000
v 0.130202893 -0.044197926 -0.002500000
v 0.132814801 -0.035587619 -0.002500000
v 0.134857976 -0.026824919 -0.002500000
v 0.136323668 -0.017947351 -0.002500000
v 0.137205602 -0.008992930 -0.002500000
v 0.132500000 0.000000000 -0.002500000
v 0.132216307 0.008665915 -0.002500000
v 0.131366444 0.017294720 -0.002500000
v 0.129954050 0.025849468 -0.002500000
v 0.127985172 0.034293523 -0.002500000
v 0.125468242 0.042590729 -0.002500000
v 0.122414038 0.050705555 -0.002500000
v 0.118835638 0.058603251 -0.002500000
v 0.114748366 0.066250000 -0.002500000
v 0.110169724 0.073613056 -0.002500000
v 0.105119318 0.080660889 -0.002500000
v 0.099618774 0.087363321 -0.002500000
v 0.093691649 0.093691649 -0.002500000
v 0.087363321 0.099618774 -0.002500000
v 0.080660889 0.105119318 -0.002500000
v 0.073613056 0.110169724 -0.002500000
v 0.066250000 0.114748366 -0.002500000
v 0.058603251 0.118835638 -0.002500000
v 0.050705555 0.122414038 -0.002500000
v 0.042590729 0.125468242 -0.002500000
v 0.034293523 0.127985172 -0.002500000
v 0.025849468 0.129954050 -0.002500000
v 0.017294720 0.131366444 -0.002500000
v 0.008665915 0.132216307 -0.002500000
v 0.000000000 0.132500000 -0.002500000
v -0.008665915 0.132216307 -0.002500000
v -0.017294720 0.131366444 -0.002500000
v -0.025849468 0.129954050 -0.002500000
v -0.034293523 0.127985172 -0.002500000
v -0.042590729 0.125468242 -0.002500000
v -0.050705555 0.122414038 -0.002500000
v -0.058603251 0.118835638 -0.002500000
v -0.066250000 0.114748366 -0.002500000
v -0.073613056 0.110169724 -0.002500000
v -0.080660889 0.105119318 -0.002500000
v -0.087363321 0.099618774 -0.002500000
v -0.093691649 0.093691649 -0.002500000
v -0.099618774 0.087363321 -0.002500000
v -0.105119318 0.080660889 -0.002500000
v -0.110169724 0.073613056 -0.002500000
v -0.114748366 0.066250000 -0.002500000
v -0.118835638 0.058603251 -0.002500000
v -0.122414038 0.050705555 -0.002500000
v -0.125468242 0.042590729 -0.002500000
v -0.127985172 0.034293523 -0.002500000
v -0.129954050 0.025849468 -0.002500000
v -0.131366444 0.017294720 -0.002500000
v -0.132216307 0.008665915 -0.002500000
v -0.132500000 0.000000000 -0.002500000
v -0.132216307 -0.008665915 -0.002500000
v -0.131366444 -0.017294720 -0.002500000
v -0.129954050 -0.025849468 -0.002500000
v -0.127985172 -0.034293523 -0.002500000
v -0.125468242 -0.042590729 -0.002500000
v -0.122414038 -0.050705555 -0.002500000
v -0.118835638 -0.058603251 -0.002500000
v -0.114748366 -0.066250000 -0.002500000
v -0.110169724 -0.073613056 -0.002500000
v -0.105119318 -0.080660889 -0.002500000
v -0.099618774 -0.087363321 -0.002500000
v -0.093691649 -0.093691649 -0.002500000
v -0.087363321 -0.099618774 -0.002500000
v -0.080660889 -0.105119318 -0.002500000
v -0.073613056 -0.110169724 -0.002500000
v -0.066250000 -0.114748366 -0.002500000
v -0.058603251 -0.118835638 -0.002500000
v -0.050705555 -0.122414038 -0.002500000
v -0.042590729 -0.125468242 -0.002500000
v -0.034293523 -0.127985172 -0.002500000
v -0.025849468 -0.129954050 -0.002500000
v -0.017294720 -0.131366444 -0.002500000
v -0.008665915 -0.132216307 -0.002500000
v -0.000000000 -0.132500000 -0.002500000
v 0.008665915 -0.132216307 -0.002500000
v 0.017294720 -0.131366444 -0.002500000
v 0.025849468 -0.129954050 -0.002500000
v 0.034293523 -0.127985172 -0.002500000
v 0.042590729 -0.125468242 -0.002500000
v 0.050705555 -0.122414038 -0.002500000
v 0.058603251 -0.118835638 -0.002500000
v 0.066250000 -0.114748366 -0.002500000
v 0.073613056 -0.110169724 -0.002500000
v 0.080660889 -0.105119318 -0.002500000
v 0.087363321 -0.099618774 -0.002500000
v 0.093691649 -0.093691649 -0.002500000
v 0.099618774 -0.087363321 -0.002500000
v 0.105119318 -0.080660889 -0.002500000
v 0.110169724 -0.073613056 -0.002500000
v 0.114748366 -0.066250000 -0.002500000
v 0.118835638 -0.058603251 -0.002500000
v 0.122414038 -0.050705555 -0.002500000
v 0.125468242 -0.042590729 -0.002500000
v 0.127985172 -0.034293523 -0.002500000
v 0.129954050 -0.025849468 -0.002500000
v 0.131366444 -0.017294720 -0.002500000
v 0.132216307 -0.008665915 -0.002500000
v 0.137500000 0.000000000 0.002500000
v 0.137205602 0.008992930 0.002500000
v 0.136323668 0.017947351 0.002500000
v 0.134857976 0.026824919 0.002500000
v 0.132814801 0.035587619 0.002500000
v 0.130202893 0.044197926 0.002500000
v 0.127033436 0.052618972 0.002500000
v 0.123320002 0.060814695 0.002500000
v 0.119078493 0.068750000 0.002500000
v 0.114327072 0.076390907 0.002500000
v 0.109086084 0.083704696 0.002500000
v 0.103377974 0.090660050 0.002500000
v 0.097227182 0.097227182 0.002500000
v 0.090660050 0.103377974 0.002500000
v 0.083704696 0.109086084 0.002500000
v 0.076390907 0.114327072 0.002500000
v 0.068750000 0.119078493 0.002500000
v 0.060814695 0.123320002 0.002500000
v 0.052618972 0.127033436 0.002500000
v 0.044197926 0.130202893 0.002500000
v 0.035587619 0.132814801 0.002500000
v 0.026824919 0.134857976 0.002500000
v 0.017947351 0.136323668 0.002500000
v 0.008992930 0.137205602 0.002500000
v 0.000000000 0.137500000 0.002500000
v -0.008992930 0.137205602 0.002500000
v -0.017947351 0.136323668 0.002500000
v -0.026824919 0.134857976 0.002500000
v -0.035587619 0.132814801 0.002500000
v -0.044197926 0.130202893 0.002500000
v -0.052618972 0.127033436 0.002500000
v -0.060814695 0.123320002 0.002500000
v -0.068750000 0.119078493 0.002500000
v -0.076390907 0.114327072 0.002500000
v -0.083704696 0.109086084 0.002500000
v -0.090660050 0.103377974 0.002500000
v -0.097227182 0.097227182 0.002500000
v -0.103377974 0.090660050 0.002500000
v -0.109086084 0.083704696 0.002500000
v -0.114327072 0.076390907 0.002500000
v -0.119078493 0.068750000 0.002500000
v -0.123320002 0.060814695 0.002500000
v -0.127033436 0.052618972 0.002500000
v -0.130202893 0.044197926 0.002500000
v -0.132814801 0.035587619 0.002500000
v -0.134857976 0.026824919 0.002500000
v -0.136323668 0.017947351 0.002500000
v -0.137205602 0.008992930 0.002500000
v -0.137500000 0.000000000 0.002500000
v -0.137205602 -0.008992930 0.002500000
v -0.136323668 -0.017947351 0.002500000
v -0.134857976 -0.026824919 0.002500000
v -0.132814801 -0.035587619 0.002500000
v -0.130202893 -0.044197926 0.002500000
v -0.127033436 -0.052618972 0.002500000
v -0.123320002 -0.060814695 0.002500000
v -0.119078493 -0.068750000 0.002500000
v -0.114327072 -0.076390907 0.002500000
v -0.109086084 -0.083704696 0.002500000
v -0.103377974 -0.090660050 0.002500000
v -0.097227182 -0.097227182 0.002500000
v -0.090660050 -0.103377974 0.002500000
v -0.083704696 -0.109086084 0.002500000
v -0.076390907 -0.114327072 0.002500000
v -0.068750000 -0.119078493 0.002500000
v -0.060814695 -0.123320002 0.002500000
v -0.052618972 -0.127033436 0.002500000
v -0.044197926 -0.130202893 0.002500000
v -0.035587619 -0.132814801 0.002500000
v -0.026824919 -0.134857976 0.002500000
v -0.017947351 -0.136323668 0.002500000
v -0.008992930 -0.137205602 0.002500000
v -0.000000000 -0.137500000 0.002500000
v 0.008992930 -0.137205602 0.002500000
v 0.017947351 -0.136323668 0.002500000
v 0.026824919 -0.134857976 0.002500000
v 0.035587619 -0.132814801 0.002500000
v 0.044197926 -0.130202893 0.002500000
v 0.052618972 -0.127033436 0.002500000
v 0.060814695 -0.123320002 0.002500000
v 0.068750000 -0.119078493 0.002500000
v 0.076390907 -0.114327072 0.002500000
v 0.083704696 -0.109086084 0.002500000
v 0.090660050 -0.103377974 0.002500000
v 0.097227182 -0.097227182 0.002500000
v 0.103377974 -0.090660050 0.002500000
v 0.109086084 -0.083704696 0.002500000
v 0.114327072 -0.076390907 0.002500000
v 0.119078493 -0.068750000 0.002500000
v 0.123320002 -0.060814695 0.002500000
v 0.127033436 -0.052618972 0.002500000
v 0.130202893 -0.044197926 0.002500000
v 0.132814801 -0.035587619 0.002500000
v 0.134857976 -0.026824919 0.002500000
v 0.136323668 -0.017947351 0.002500000
v 0.137205602 -0.008992930 0.002500000
v 0.132500000 0.000000000 0.002500000
v 0.132216307 0.008665915 0.002500000
v 0.131366444 0.017294720 0.002500000
v 0.129954050 0.025849468 0.002500000
v 0.127985172 0.034293523 0.002500000
v 0.125468242 0.042590729 0.002500000
v 0.122414038 0.050705555 0.002500000
v 0.118835638 0.058603251 0.002500000
v 0.114748366 0.066250000 0.002500000
v 0.110169724 0.073613056 0.002500000
v 0.105119318 0.080660889 0.002500000
v 0.099618774 0.087363321 0.002500000
v 0.093691649 0.093691649 0.002500000
v 0.087363321 0.099618774 0.002500000
v 0.080660889 0.105119318 0.002500000
v 0.073613056 0.110169724 0.002500000
v 0.066250000 0.114748366 0.002500000
v 0.058603251 0.118835638 0.002500000
v 0.050705555 0.122414038 0.002500000
v 0.042590729 0.125468242 0.002500000
v 0.034293523 0.127985172 0.002500000
v 0.025849468 0.129954050 0.002500000
v 0.017294720 0.131366444 0.002500000
v 0.008665915 0.132216307 0.002500000
v 0.000000000 0.132500000 0.002500000
v -0.008665915 0.132216307 0.002500000
v -0.017294720 0.131366444 0.002500000
v -0.025849468 0.129954050 0.002500000
v -0.034293523 0.127985172 0.002500000
v -0.042590729 0.125468242 0.002500000
v -0.050705555 0.122414038 0.002500000
v -0.058603251 0.118835638 0.002500000
v -0.066250000 0.114748366 0.002500000
v -0.073613056 0.110169724 0.002500000
v -0.080660889 0.105119318 0.002500000
v -0.087363321 0.099618774 0.002500000
v -0.093691649 0.093691649 0.002500000
v -0.099618774 0.087363321 0.002500000
v -0.105119318 0.080660889 0.002500000
v -0.110169724 0.073613056 0.002500000
v -0.114748366 0.066250000 0.002500000
v -0.118835638 0.058603251 0.002500000
v -0.122414038 0.050705555 0.002500000
v -0.125468242 0.042590729 0.002500000
v -0.127985172 0.034293523 0.002500000
v -0.129954050 0.025849468 0.002500000
v -0.131366444 0.017294720 0.002500000
v -0.132216307 0.008665915 0.002500000
v -0.132500000 0.000000000 0.002500000
v -0.132216307 -0.008665915 0.002500000
v -0.131366444 -0.017294720 0.002500000
v -0.129954050 -0.025849468 0.002500000
v -0.127985172 -0.034293523 0.002500000
v -0.125468242 -0.042590729 0.002500000
v -0.122414038 -0.050705555 0.002500000
v -0.118835638 -0.058603251 0.002500000
v -0.114748366 -0.066250000 0.002500000
v -0.110169724 -0.073613056 0.002500000
v -0.105119318 -0.080660889 0.002500000
v -0.099618774 -0.087363321 0.002500000
v -0.093691649 -0.093691649 0.002500000
v -0.087363321 -0.099618774 0.002500000
v -0.080660889 -0.105119318 0.002500000
v -0.073613056 -0.110169724 0.002500000
v -0.066250000 -0.114748366 0.002500000
v -0.058603251 -0.118835638 0.002500000
v -0.050705555 -0.122414038 0.002500000
v -0.042590729 -0.125468242 0.002500000
v -0.034293523 -0.127985172 0.002500000
v -0.025849468 -0.129954050 0.002500000
v -0.017294720 -0.131366444 0.002500000
v -0.008665915 -0.132216307 0.002500000
v -0.000000000 -0.132500000 0.002500000
v 0.008665915 -0.132216307 0.002500000
v 0.017294720 -0.131366444 0.002500000
v 0.025849468 -0.129954050 0.002500000
v 0.034293523 -0.127985172 0.002500000
v 0.042590729 -0.125468242 0.002500000
v 0.050705555 -0.122414038 0.002500000
v 0.058603251 -0.118835638 0.002500000
v 0.066250000 -0.114748366 0.002500000
v 0.073613056 -0.110169724 0.002500000
v 0.080660889 -0.105119318 0.002500000
v 0.087363321 -0.099618774 0.002500000
v 0.093691649 -0.093691649 0.002500000
v 0.099618774 -0.087363321 0.002500000
v 0.105119318 -0.080660889 0.002500000
v 0.110169724 -0.073613056 0.002500000
v 0.114748366 -0.066250000 0.002500000
v 0.118835638 -0.058603251 0.002500000
v 0.122414038 -0.050705555 0.002500000
v 0.125468242 -0.042590729 0.002500000
v 0.127985172 -0.034293523 0.002500000
v 0.129954050 -0.025849468 0.002500000
v 0.131366444 -0.017294720 0.002500000
v 0.132216307 -0.008665915 0.002500000
f 193 194 290 289
f 2 1 97 98
f 1 2 194 193
f 98 97 289 290
f 194 195 291 290
f 3 2 98 99
f 2 3 195 194
f 99 98 290 291
f 195 196 292 291
f 4 3 99 100
f 3 4 196 195
f 100 99 291 292
f 196 197 293 292
f 5 4 100 101
f 4 5 197 196
f 101 100 292 293
f 197 198 294 293
f 6 5 101 102
f 5 6 198 197
f 102 101 293 294
f 198 199 295 294
f 7 6 102 103
f 6 7 199 198
f 103 102 294 295
f 199 200 296 295
f 8 7 103 104
f 7 8 200 199
f 104 103 295 296
f 200 201 297 296
f 9 8 104 105
f 8 9 201 200
f 105 104 296 297
f 201 202 298 297
f 10 9 105 106
f 9 10 202 201
f 106 105 297 298
f 202 203 299 298
f 11 10 106 107
f 10 11 203 202
f 107 106 298 299
f 203 204 300 299
f 12 11 107 108
f 11 12 204 203
f 108 107 299 300
f 204 205 301 300
f 13 12 108 109
f 12 13 205 204
f 109 108 300 301
f 205 206 302 301
f 14 13 109 110
f 13 14 206 205
f 110 109 301 302
f 206 207 303 302
f 15 14 110 111
f 14 15 207 206
f 111 110 302 303
f 207 208 304 303
f 16 15 111 112
f 15 16 208 207
f 112 111 303 304
f 208 209 305 304
f 17 16 112 113
f 16 17 209 208
f 113 112 304 305
f 209 210 306 305
f 18 17 113 114
f 17 18 210 209
f 114 113 305 306
f 210 211 307 306
f 19 18 114 115
f 18 19 211 210
f 115 114 306 307
f 211 212 308 307
f 20 19 115 116
f 19 20 212 211
f 116 115 307 308
f 212 213 309 308
f 21 20 116 117
f 20 21 213 212
f 117 116 308 309
f 213 214 310 309
f 22 21 117 118
f 21 22 214 213
f 118 117 309 310
f 214 215 311 310
f 23 22 118 119
f 22 23 215 214
f 119 118 310 311
f 215 216 312 311
f 24 23 119 120
f 23 24 216 215
f 120 119 311 312
f 216 217 313 312
f 25 24 120 121
f 24 25 217 216
f 121 120 312 313
f 217 218 314 313
f 26 25 121 122
f 25 26 218 217
f 122 121 313 314
f 218 219 315 314
f 27 26 122 123
f 26 27 219 218
f 123 122 314 315
f 219 220 316 315
f 28 27 123 124
f 27 28 220 219
f 124 123 315 316
f 220 221 317 316
f 29 28 124 125
f 28 29 221 220
f 125 124 316 317
f 221 222 318 317
f 30 29 125 126
f 29 30 222 221
f 126 125 317 318
f 222 223 319 318
f 31 30 126 127
f 30 31 223 222
f 127 126 318 319
f 223 224 320 319
f 32 31 127 128
f 31 32 224 223
f 128 127 319 320
f 224 225 321 320
f 33 32 128 129
f 32 33 225 224
f 129 128 320 321
f 225 226 322 321
f 34 33 129 130
f 33 34 226 225
f 130 129 321 322
f 226 227 323 322
f 35 34 130 131
f 34 35 227 226
f 131 130 322 323
f 227 228 324 323
f 36 35 131 132
f 35 36 228 227
f 132 131 323 324
f 228 229 325 324
f 37 36 132 133
f 36 37 229 228
f 133 132 324 325
f 229 230 326 325
f 38 37 133 134
f 37 38 230 229
f 134 133 325 326
f 230 231 327 326
f 39 38 134 135
f 38 39 231 230
f 135 134 326 327
f 231 232 328 327
f 40 39 135 136
f 39 40 232 231
f 136 135 327 328
f 232 233 329 328
f 41 40 136 137
f 40 41 233 232
f 137 136 328 329
f 233 234 330 329
f 42 41 137 138
f 41 42 234 233
f 138 137 329 330
f 234 235 331 330
f 43 42 138 139
f 42 43 235 234
f 139 138 330 331
f 235 236 332 331
f 44 43 139 140
f 43 44 236 235
f 140 139 331 332
f 236 237 333 332
f 45 44 140 141
f 44 45 237 236
f 141 140 332 333
f 237 238 334 333
f 46 45 141 142
f 45 46 238 237
f 142 141 333 334
f 238 239 335 334
f 47 46 142 143
f 46 47 239 238
f 143 142 334 335
f 239 240 336 335
f 48 47 143 144
f 47 48 240 239
f 144 143 335 336
f 240 241 337 336
f 49 48 144 145
f 48 49 241 240
f 145 144 336 337
f 241 242 338 337
f 50 49 145 146
f 49 50 242 241
f 146 145 337 338
f 242 243 339 338
f 51 50 146 147
f 50 51 243 242
f 147 146 338 339
f 243 244 340 339
f 52 51 147 148
f 51 52 244 243
f 148 147 339 340
f 244 245 341 340
f 53 52 148 149
f 52 53 245 244
f 149 148 340 341
f 245 246 342 341
f 54 53 149 150
f 53 54 246 245
f 150 149 341 342
f 246 247 343 342
f 55 54 150 151
f 54 55 247 246
f 151 150 342 343
f 247 248 344 343
f 56 55 151 152
f 55 56 248 247
f 152 151 343 344
f 248 249 345 344
f 57 56 152 153
f 56 57 249 248
f 153 152 344 345
f 249 250 346 345
f 58 57 153 154
f 57 58 250 249
f 154 153 345 346
f 250 251 347 346
f 59 58 154 155
f 58 59 251 250
f 155 154 346 347
f 251 252 348 347
f 60 59 155 156
f 59 60 252 251
f 156 155 347 348
f 252 253 349 348
f 61 60 156 157
f 60 61 253 252
f 157 156 348 349
f 253 254 350 349
f 62 61 157 158
f 61 62 254 253
f 158 157 349 350
f 254 255 351 350
f 63 62 158 159
f 62 63 255 254
f 159 158 350 351
f 255 256 352 351
f 64 63 159 160
f 63 64 256 255
f 160 159 351 352
f 256 257 353 352
f 65 64 160 161
f 64 65 257 256
f 161 160 352 353
f 257 258 354 353
f 66 65 161 162
f 65 66 258 257
f 162 161 353 354
f 258 259 355 354
f 67 66 162 163
f 66 67 259 258
f 163 162 354 355
f 259 260 356 355
f 68 67 163 164
f 67 68 260 259
f 164 163 355 356
f 260 261 357 356
f 69 68 164 165
f 68 69 261 260
f 165 164 356 357
f 261 262 358 357
f 70 69 165 166
f 69 70 262 261
f 166 165 357 358
f 262 263 359 358
f 71 70 166 167
f 70 71 263 262
f 167 166 358 359
f 263 264 360 359
f 72 71 167 168
f 71 72 264 263
f 168 167 359 360
f 264 265 361 360
f 73 72 168 169
f 72 73 265 264
f 169 168 360 361
f 265 266 362 361
f 74 73 169 170
f 73 74 266 265
f 170 169 361 362
f 266 267 363 362
f 75 74 170 171
f 74 75 267 266
f 171 170 362 363
f 267 268 364 363
f 76 75 171 172
f 75 76 268 267
f 172 171 363 364
f 268 269 365 364
f 77 76 172 173
f 76 77 269 268
f 173 172 364 365
f 269 270 366 365
f 78 77 173 174
f 77 78 270 269
f 174 173 365 366
f 270 271 367 366
f 79 78 174 175
f 78 79 271 270
f 175 174 366 367
f 271 272 368 367
f 80 79 175 176
f 79 80 272 271
f 176 175 367 368
f 272 273 369 368
f 81 80 176 177
f 80 81 273 272
f 177 176 368 369
f 273 274 370 369
f 82 81 177 178
f 81 82 274 273
f 178 177 369 370
f 274 275 371 370
f 83 82 178 179
f 82 83 275 274
f 179 178 370 371
f 275 276 372 371
f 84 83 179 180
f 83 84 276 275
f 180 179 371 372
f 276 277 373 372
f 85 84 180 181
f 84 85 277 276
f 181 180 372 373
f 277 278 374 373
f 86 85 181 182
f 85 86 278 277
f 182 181 373 374
f 278 279 375 374
f 87 86 182 183
f 86 87 279 278
f 183 182 374 375
f 279 280 376 375
f 88 87 183 184
f 87 88 280 279
f 184 183 375 376
f 280 281 377 376
f 89 88 184 185
f 88 89 281 280
f 185 184 376 377
f 281 282 378 377
f 90 89 185 186
f 89 90 282 281
f 186 185 377 378
f 282 283 379 378
f 91 90 186 187
f 90 91 283 282
f 187 186 378 379
f 283 284 380 379
f 92 91 187 188
f 91 92 284 283
f 188 187 379 380
f 284 285 381 380
f 93 92 188 189
f 92 93 285 284
f 189 188 380 381
f 285 286 382 381
f 94 93 189 190
f 93 94 286 285
f 190 189 381 382
f 286 287 383 382
f 95 94 190 191
f 94 95 287 286
f 191 190 382 383
f 287 288 384 383
f 96 95 191 192
f 95 96 288 287
f 192 191 383 384
f 288 193 289 384
f 1 96 192 97
f 96 1 193 288
f 97 192 384 289
